<?xml version="1.0" standalone="no"?>
<!DOCTYPE svg PUBLIC "-//W3C//DTD SVG 20010904//EN"
 "http://www.w3.org/TR/2001/REC-SVG-20010904/DTD/svg10.dtd">
<svg version="1.0" xmlns="http://www.w3.org/2000/svg"
 width="576.000000pt" height="581.000000pt" viewBox="0 0 576.000000 581.000000"
 preserveAspectRatio="xMidYMid meet">

<g transform="translate(0.000000,581.000000) scale(0.100000,-0.100000)"
fill="#000000" stroke="none">
<path d="M0 5785 l0 -25 483 -1 c265 -1 471 -4 457 -8 l-25 -7 25 -8 c23 -7
23 -8 6 -15 -14 -5 -16 -10 -8 -15 7 -4 10 -12 7 -17 -4 -5 -1 -9 6 -9 8 0 10
-14 7 -45 -3 -24 -2 -42 2 -40 20 12 14 -22 -7 -45 -23 -24 -31 -60 -14 -60 4
0 11 -21 15 -47 5 -39 3 -48 -14 -60 -11 -8 -20 -23 -20 -34 0 -10 -4 -19 -10
-19 -5 0 -10 -22 -10 -49 0 -67 -11 -141 -20 -136 -5 3 -6 -13 -3 -35 6 -39
-9 -56 -21 -25 -3 8 -10 15 -16 15 -16 0 -12 -30 5 -37 14 -5 14 -8 0 -29 -8
-13 -15 -32 -15 -43 0 -11 -7 -26 -15 -35 -8 -8 -15 -22 -15 -30 0 -9 -4 -16
-10 -16 -5 0 -10 9 -10 20 0 11 -4 20 -9 20 -14 0 -23 -18 -12 -22 6 -2 7 -17
2 -40 -7 -30 -6 -38 8 -41 14 -4 14 -5 -1 -6 -10 0 -18 -5 -18 -11 0 -5 8 -10
18 -10 12 -1 9 -5 -10 -16 -16 -8 -28 -19 -28 -25 0 -6 -4 -7 -10 -4 -10 6 -3
-22 10 -40 12 -16 6 -100 -7 -100 -20 0 -28 -16 -13 -25 11 -7 3 -10 -27 -10
-41 0 -43 -1 -43 -30 0 -16 -4 -30 -9 -30 -5 0 -11 -10 -14 -21 -5 -17 -11
-20 -31 -17 -18 4 -32 -2 -47 -18 -12 -13 -20 -27 -16 -30 3 -4 2 -15 -3 -25
-8 -14 -5 -22 14 -36 l24 -19 -28 -11 c-21 -8 -29 -19 -32 -39 -2 -16 -8 -28
-14 -27 -6 1 -10 -8 -10 -19 1 -12 -5 -23 -13 -26 -10 -3 -12 1 -8 17 4 16 1
21 -14 21 -10 0 -19 -6 -19 -14 0 -14 -52 -58 -82 -69 -10 -3 -18 -2 -18 4 0
13 -72 0 -82 -15 -14 -20 -8 -38 12 -43 32 -9 23 -21 -16 -21 -45 0 -54 -9
-21 -21 14 -5 28 -15 33 -22 4 -7 3 -10 -3 -6 -6 4 -30 0 -54 -9 -26 -9 -57
-13 -77 -9 -19 4 -32 2 -32 -5 0 -5 -6 -10 -14 -10 -8 0 -16 -7 -20 -15 -3 -8
-15 -15 -26 -15 -25 0 -27 -35 -2 -45 16 -6 16 -7 0 -19 -17 -13 -18 -119 -18
-1985 l0 -1971 2880 0 2880 0 0 2905 0 2905 -2880 0 -2880 0 0 -25z m1610 -40
c9 -10 9 -15 1 -15 -6 0 -11 5 -11 12 0 6 -2 9 -5 7 -7 -8 7 -49 15 -44 19 12
35 -153 16 -172 -10 -10 -7 -43 5 -43 7 0 9 -29 7 -85 -3 -78 -1 -85 19 -96
25 -13 30 -30 42 -144 6 -49 6 -84 0 -91 -9 -11 -4 -61 17 -192 3 -19 1 -32
-3 -29 -15 10 -27 -6 -46 -60 -13 -39 -15 -58 -7 -79 9 -22 7 -31 -7 -47 -17
-19 -17 -20 0 -14 16 6 17 0 12 -78 -5 -72 -3 -85 10 -85 8 0 15 -7 15 -15 0
-7 8 -19 18 -24 9 -6 11 -11 5 -11 -7 0 -13 -11 -13 -25 0 -18 5 -25 20 -25
11 0 20 -7 20 -15 0 -8 9 -15 20 -15 23 0 27 -28 5 -36 -8 -4 -15 -13 -15 -21
0 -10 -7 -14 -20 -10 -26 7 -26 -7 2 -25 18 -12 21 -25 23 -81 1 -37 -2 -70
-7 -73 -10 -7 0 -114 12 -128 5 -5 4 -19 0 -32 -8 -20 -6 -24 9 -24 22 0 31
-26 31 -93 0 -27 5 -57 11 -69 12 -23 19 -60 24 -143 2 -33 8 -78 14 -100 5
-22 7 -60 4 -84 -5 -36 -3 -46 13 -58 18 -13 18 -15 1 -44 -16 -30 -16 -31 2
-36 19 -5 31 -60 31 -149 0 -23 7 -61 15 -84 18 -50 19 -98 4 -136 -7 -21 -6
-47 7 -104 9 -41 21 -81 27 -88 6 -7 11 -40 13 -72 1 -33 10 -74 20 -92 12
-22 18 -58 19 -108 1 -41 4 -82 7 -90 11 -25 31 -152 33 -205 1 -27 5 -57 8
-65 18 -45 61 -355 61 -437 -1 -55 3 -73 13 -73 13 0 19 -19 6 -21 -38 -4 -61
-8 -79 -14 -33 -11 -51 16 -49 72 1 32 -3 54 -14 66 -14 17 -14 20 3 33 19 13
17 16 -24 65 l-44 52 27 21 c29 24 34 46 15 76 -10 15 -9 22 5 38 23 25 21 36
-3 29 -18 -4 -20 -2 -14 16 3 12 10 26 15 32 14 15 10 45 -6 45 -8 0 -20 -10
-26 -22 -7 -13 -29 -43 -51 -68 -55 -63 -58 -67 -58 -85 0 -8 -4 -15 -10 -15
-5 0 -10 9 -10 20 0 12 -6 33 -14 48 -21 42 -26 120 -12 202 9 50 10 84 4 102
-8 22 -6 33 11 57 21 30 27 56 13 64 -4 3 -24 -1 -45 -8 -50 -17 -52 -12 -51
135 0 84 5 123 16 145 14 26 14 30 0 41 -8 6 -15 25 -14 43 1 26 -3 31 -22 31
-12 0 -27 -5 -34 -12 -8 -8 -15 -8 -27 2 -28 23 -14 202 19 236 8 7 17 36 21
64 4 27 11 52 16 56 5 3 9 12 9 20 0 10 -7 13 -25 8 -18 -4 -25 -2 -25 9 0 8
-7 18 -16 21 -14 5 -16 16 -11 62 5 53 4 57 -31 96 l-37 41 32 26 c32 27 44
77 16 67 -22 -9 -15 28 10 49 l22 20 -22 3 c-28 4 -28 4 -3 44 21 35 26 63 11
72 -13 9 -71 -52 -65 -68 3 -7 -9 -23 -27 -37 -30 -23 -37 -35 -53 -86 -6 -19
-4 -23 13 -23 15 0 22 -9 27 -34 3 -19 3 -39 0 -45 -4 -6 -1 -19 5 -29 17 -28
-17 -105 -43 -96 -12 4 -18 0 -18 -11 0 -11 5 -15 15 -11 25 9 45 -5 45 -30 0
-38 -35 -97 -68 -116 -32 -19 -77 -24 -67 -9 3 5 1 12 -5 16 -23 14 0 172 27
182 10 4 13 14 9 34 -3 19 1 35 14 52 41 52 15 65 -31 16 -23 -25 -34 -30 -55
-25 -15 4 -32 2 -40 -5 -10 -8 -28 -8 -71 1 -32 6 -72 11 -90 11 -18 -1 -34 3
-37 8 -6 9 41 61 55 61 5 0 9 6 9 13 0 6 23 23 50 36 42 21 50 29 50 53 0 29
14 33 38 11 7 -7 15 -42 19 -77 3 -36 9 -63 14 -61 4 3 5 21 2 40 -6 35 12 95
28 95 15 0 10 38 -6 44 -10 3 -17 -3 -22 -22 l-7 -27 -7 25 c-12 43 -10 58 11
65 18 6 20 15 20 79 0 43 5 77 12 84 7 7 8 12 3 12 -6 0 -5 4 1 8 17 10 22 58
7 54 -23 -4 -19 58 3 71 8 4 14 20 14 34 0 15 6 34 13 42 8 9 19 36 26 61 7
25 26 65 42 89 l28 43 -26 35 c-15 19 -32 32 -40 29 -7 -3 -13 1 -13 9 0 9 -6
12 -16 8 -8 -3 -13 -12 -9 -21 5 -15 -46 -72 -65 -72 -7 0 -9 34 -6 100 6 102
-4 155 -26 148 -7 -3 -25 -64 -40 -141 -15 -76 -36 -149 -45 -164 -25 -38 -26
-112 -1 -132 15 -13 19 -32 22 -106 2 -58 9 -101 20 -120 9 -16 16 -39 16 -49
0 -18 -1 -18 -20 -1 -11 10 -20 24 -20 32 0 7 -4 13 -10 13 -5 0 -10 -7 -10
-15 0 -8 -4 -15 -10 -15 -5 0 -10 -11 -10 -24 0 -24 -58 -96 -77 -96 -5 0 -15
11 -21 24 -9 19 -7 35 9 78 11 29 25 84 30 123 5 38 12 77 15 87 9 30 -19 21
-56 -17 -35 -36 -76 -46 -86 -21 -7 19 17 62 66 115 22 25 40 53 40 63 0 10 8
26 18 36 9 10 18 29 19 42 16 215 42 359 73 414 11 18 17 45 15 66 -2 19 3 61
11 93 8 32 14 70 14 83 0 13 4 32 10 42 11 18 46 179 60 276 6 36 5 66 0 77
-6 10 -11 46 -13 81 -1 35 -6 68 -10 75 -4 6 -10 47 -13 89 -3 43 -9 83 -13
89 -7 8 -29 127 -34 185 -1 8 -6 18 -12 22 -5 4 72 8 171 8 149 0 184 -3 194
-15z m2390 6 l-85 -6 75 -5 c41 -3 115 -3 165 0 l90 5 -75 6 c-48 3 -14 5 95
5 130 0 150 -1 85 -6 l-85 -6 67 -2 c37 -1 70 -7 73 -12 4 -6 1 -9 -7 -8 -14
3 -19 -39 -7 -57 4 -5 6 -47 6 -93 0 -75 -2 -83 -21 -87 -58 -11 -96 -13 -101
-4 -10 15 -28 10 -21 -6 3 -9 0 -15 -10 -15 -10 0 -14 6 -10 15 3 8 2 15 -3
15 -4 0 -21 12 -36 26 -24 22 -38 26 -99 28 -59 2 -84 8 -148 39 -56 27 -76
41 -72 52 8 20 24 19 39 -1 6 -9 20 -14 31 -12 16 4 15 6 -9 16 -16 7 -25 17
-22 22 4 7 -3 8 -22 3 -15 -4 -36 -7 -45 -7 -13 0 -14 -3 -6 -13 6 -8 8 -16 4
-20 -3 -3 -6 -1 -6 5 0 7 -12 12 -27 12 -43 1 -127 26 -131 38 -2 7 1 12 8 12
6 0 8 5 5 10 -4 6 -11 7 -17 4 -7 -4 -8 -2 -4 4 4 6 14 8 24 5 13 -4 13 -2 -3
10 -11 9 -27 17 -35 17 -10 1 -8 4 5 10 11 4 110 7 220 7 131 0 171 -3 115 -6z
m654 0 c15 -6 16 -10 7 -16 -10 -5 -10 -9 -2 -15 7 -4 11 -37 11 -86 0 -43 0
-90 0 -104 1 -32 9 -167 12 -200 2 -14 -1 -27 -7 -30 -5 -3 -11 10 -13 28 -4
40 -22 43 -22 3 0 -34 -12 -40 -57 -33 -32 4 -33 4 -33 -32 0 -32 -2 -35 -17
-25 -15 9 -18 28 -21 101 -1 50 -7 97 -13 104 -17 21 -5 38 27 40 25 1 33 -4
43 -28 10 -22 10 -33 2 -41 -6 -6 -11 -15 -11 -19 0 -13 52 -5 57 9 3 7 9 13
15 13 5 0 7 -4 4 -8 -2 -4 -1 -14 5 -22 6 -10 9 0 9 33 0 34 -4 47 -14 47 -8
0 -20 16 -26 35 -14 41 -50 68 -50 37 0 -14 -7 -19 -25 -19 -13 0 -24 2 -23 6
4 32 -4 61 -17 61 -16 0 -18 9 -15 48 1 12 -3 22 -8 22 -18 0 -21 40 -4 50 15
8 15 9 -3 10 -19 1 -19 1 -2 15 18 13 17 14 -5 18 -13 2 22 5 77 5 55 0 109
-3 119 -7z m-1226 -78 c-10 -2 -28 -2 -40 0 -13 2 -5 4 17 4 22 1 32 -1 23 -4z
m-116 -20 c-30 -6 -86 -58 -77 -72 6 -11 -12 -15 -48 -11 -22 2 -87 -19 -87
-29 0 -7 -64 -27 -121 -37 -29 -4 -41 -14 -59 -46 -26 -46 -110 -136 -110
-117 0 6 11 27 25 45 14 18 25 44 25 58 0 14 5 26 10 26 6 0 10 5 10 10 0 19
-19 10 -25 -12 -4 -13 -20 -36 -35 -53 -15 -16 -35 -43 -43 -60 -19 -39 -77
-111 -77 -97 0 6 5 14 10 17 6 3 10 16 10 28 0 20 46 98 63 105 4 2 7 10 7 18
0 8 5 14 11 14 6 0 9 12 7 27 -5 42 100 143 147 143 14 0 13 -5 -6 -31 -30
-43 -12 -59 34 -30 19 11 41 21 49 21 9 0 21 6 27 14 9 11 7 15 -11 21 -20 6
-17 9 22 17 25 5 70 16 100 23 30 8 80 13 110 13 30 0 44 -3 32 -5z m-276
-228 c-3 -10 1 -15 13 -15 22 0 39 -32 46 -84 2 -21 7 -46 10 -56 3 -10 1 -21
-5 -25 -5 -3 -8 -16 -4 -29 6 -24 -21 -66 -66 -101 -13 -11 -54 -49 -90 -85
-36 -36 -74 -72 -84 -80 -16 -13 -18 -12 -16 10 4 49 0 71 -11 64 -23 -14 1
99 30 146 15 25 34 65 41 89 8 24 33 65 57 91 24 26 43 52 43 57 0 12 21 33
33 33 5 0 7 -7 3 -15z m-308 -25 c-7 -10 -14 -18 -15 -16 -6 6 9 36 18 36 5 0
4 -9 -3 -20z m1930 -145 c-6 -14 -13 -23 -15 -21 -5 5 15 46 22 46 3 0 -1 -11
-7 -25z m-91 -220 c5 -16 6 -48 2 -70 -6 -37 -6 -37 -8 -8 0 17 -5 33 -10 35
-16 5 -30 170 -17 187 8 11 12 0 18 -50 3 -35 10 -77 15 -94z m123 145 c0 -5
-5 -10 -11 -10 -5 0 -7 5 -4 10 3 6 8 10 11 10 2 0 4 -4 4 -10z m560 -50 c0
-5 -4 -10 -10 -10 -5 0 -10 5 -10 10 0 6 5 10 10 10 6 0 10 -4 10 -10z m-620
-25 c8 -9 8 -15 2 -15 -7 0 -9 -28 -7 -80 3 -65 1 -80 -11 -80 -14 0 -15 2
-19 133 -1 59 10 73 35 42z m-50 -35 c0 -11 -2 -20 -4 -20 -2 0 -6 9 -9 20 -3
11 -1 20 4 20 5 0 9 -9 9 -20z m-2853 -87 c-3 -10 -5 -4 -5 12 0 17 2 24 5 18
2 -7 2 -21 0 -30z m-850 -15 c-3 -8 -6 -5 -6 6 -1 11 2 17 5 13 3 -3 4 -12 1
-19z m871 -108 c0 -9 -3 -7 -8 5 -5 11 -8 29 -8 40 0 16 2 15 8 -5 4 -14 8
-32 8 -40z m2899 18 c-3 -7 -5 -2 -5 12 0 14 2 19 5 13 2 -7 2 -19 0 -25z m53
18 c0 -26 -12 -46 -28 -46 -12 0 -13 3 -4 12 7 7 12 20 12 30 0 10 5 18 10 18
6 0 10 -6 10 -14z m-3900 -36 c0 -5 -2 -10 -4 -10 -3 0 -8 5 -11 10 -3 6 -1
10 4 10 6 0 11 -4 11 -10z m1602 -52 c-7 -7 -12 -8 -12 -2 0 14 12 26 19 19 2
-3 -1 -11 -7 -17z m-21 -54 c-9 -28 -9 -29 -10 -3 -1 14 2 29 6 32 11 12 13 2
4 -29z m2255 -311 c-10 -10 -19 5 -10 18 6 11 8 11 12 0 2 -7 1 -15 -2 -18z
m-4056 -24 c0 -5 -4 -9 -10 -9 -5 0 -10 7 -10 16 0 8 5 12 10 9 6 -3 10 -10
10 -16z m4077 -13 c0 -16 -40 -27 -57 -16 -16 10 6 24 25 16 8 -3 15 -1 15 4
0 6 4 10 8 10 5 0 9 -6 9 -14z m-207 -106 c0 -5 -10 -10 -22 -10 -19 0 -20 2
-8 10 19 13 30 13 30 0z m-4104 -147 c-10 -10 -19 5 -10 18 6 11 8 11 12 0 2
-7 1 -15 -2 -18z m2667 -162 c-4 -3 -9 -33 -11 -66 -3 -59 -30 -132 -48 -127
-14 3 -10 115 4 120 7 2 12 12 12 22 0 10 5 22 11 25 5 4 8 12 6 18 -2 7 3 25
12 40 l16 29 3 -28 c2 -15 0 -30 -5 -33z m-1693 -1 c-6 -12 -14 -20 -17 -17
-2 3 1 14 8 26 17 26 24 19 9 -9z m1850 4 c0 -4 -13 -22 -30 -41 -16 -18 -30
-45 -30 -58 0 -13 -9 -40 -21 -59 -21 -35 -42 -46 -54 -26 -3 6 1 10 10 10 14
0 16 7 10 43 -4 23 -8 45 -9 48 -3 14 81 88 102 88 12 1 22 -2 22 -5z m-1886
-170 c3 -8 2 -12 -4 -9 -6 3 -10 10 -10 16 0 14 7 11 14 -7z m1386 -384 c0 -5
-5 -10 -11 -10 -5 0 -7 5 -4 10 3 6 8 10 11 10 2 0 4 -4 4 -10z m-21 -59 c-11
-31 -39 -62 -39 -43 0 14 33 72 42 72 4 0 2 -13 -3 -29z m911 -77 c0 -2 -6
-13 -12 -24 -15 -23 -3 -40 31 -43 11 -1 21 -6 21 -12 0 -16 -40 -16 -47 1
-10 27 -22 14 -34 -41 -19 -85 -33 -81 -24 6 5 41 8 84 8 96 -1 13 6 24 16 26
16 3 41 -2 41 -9z m15 -158 c9 -58 4 -80 -19 -84 -15 -3 -18 0 -13 19 4 13 7
43 7 67 0 55 17 54 25 -2z m-2068 -103 c-15 -16 -17 -16 -17 -1 0 9 6 18 13
21 20 7 22 -2 4 -20z m-116 -56 c-8 -8 -11 -4 -11 14 0 33 14 47 18 19 2 -12
-1 -27 -7 -33z m1056 -29 c-3 -8 -6 -5 -6 6 -1 11 2 17 5 13 3 -3 4 -12 1 -19z
m-951 -4 c-3 -9 3 -29 15 -45 17 -25 18 -30 5 -35 -23 -9 -33 2 -39 43 -4 24
-2 40 6 45 18 11 20 10 13 -8z m931 -91 c-3 -10 -5 -2 -5 17 0 19 2 27 5 18 2
-10 2 -26 0 -35z m-7 -37 c0 -8 -4 -18 -10 -21 -5 -3 -10 3 -10 14 0 12 5 21
10 21 6 0 10 -6 10 -14z m30 -147 c0 -5 -11 -11 -24 -15 -28 -7 -33 -52 -8
-70 21 -15 6 -37 -17 -25 -12 7 -16 18 -14 38 3 15 0 47 -5 70 -5 23 -8 44 -5
47 7 6 73 -34 73 -45z m-780 -153 c0 -3 -4 -8 -10 -11 -5 -3 -10 -1 -10 4 0 6
5 11 10 11 6 0 10 -2 10 -4z m10 -65 c0 -12 -28 -22 -34 -12 -3 5 -3 11 1 15
9 9 33 7 33 -3z m187 -553 c19 -29 31 -111 21 -140 -6 -16 -8 -58 -6 -93 4
-64 -1 -75 -30 -57 -7 5 -12 28 -11 58 0 27 -2 86 -6 131 -4 45 -5 89 -2 98 8
18 23 20 34 3z m3791 -1140 c-3 -7 -29 -16 -59 -20 -30 -4 -70 -13 -90 -19
-26 -8 -42 -8 -55 -1 -35 20 30 37 189 50 11 1 17 -3 15 -10z m-40 -306 c2 -7
-5 -12 -17 -12 -14 0 -19 5 -14 15 6 17 25 15 31 -3z m-46 -79 c2 -28 9 -41
28 -50 22 -11 21 -18 -2 -14 -4 0 -10 -8 -13 -19 -4 -11 -12 -20 -18 -21 -7
-1 -1 -5 13 -9 19 -6 14 -7 -21 -6 -26 0 -45 4 -42 9 2 4 10 7 17 7 16 0 30
76 20 114 -4 16 -2 26 4 26 6 0 12 -17 14 -37z"/>
<path d="M1504 5743 c11 -11 45 -13 51 -3 4 6 -7 10 -26 10 -18 0 -29 -3 -25
-7z"/>
<path d="M1506 5678 c4 -24 10 -53 15 -65 5 -14 4 -24 -4 -27 -8 -4 -9 -8 -1
-11 6 -3 9 -18 6 -34 -5 -36 25 -178 45 -210 14 -22 14 -25 -8 -42 -30 -23
-17 -25 16 -3 24 15 24 18 19 117 -3 56 -10 110 -15 119 -5 9 -9 42 -9 72 0
31 -4 56 -9 56 -4 0 -8 15 -7 33 1 28 -3 32 -26 35 -27 3 -27 2 -22 -40z m59
-144 c3 -20 4 -39 1 -42 -3 -3 -6 4 -6 16 0 11 -4 24 -10 27 -12 8 -13 35 -1
35 5 0 12 -16 16 -36z"/>
<path d="M1421 4604 c0 -11 3 -14 6 -6 3 7 2 16 -1 19 -3 4 -6 -2 -5 -13z"/>
<path d="M1410 4348 c0 -19 2 -20 10 -8 13 19 13 30 0 30 -5 0 -10 -10 -10
-22z"/>
<path d="M1548 4138 c8 -18 17 -27 19 -21 5 15 -14 53 -27 53 -4 0 -1 -14 8
-32z"/>
<path d="M1142 4098 c-14 -14 -16 -48 -3 -48 9 0 25 49 18 56 -2 2 -9 -2 -15
-8z"/>
<path d="M1530 4061 c13 -9 13 -11 -2 -11 -10 0 -18 -7 -18 -15 0 -8 -4 -15
-9 -15 -23 0 -14 -267 10 -294 13 -14 41 54 34 82 -4 18 -9 22 -14 13 -6 -10
-10 -9 -15 4 -8 22 -8 21 11 41 13 13 14 19 5 22 -18 6 -15 47 9 97 24 51 22
78 -6 83 -17 3 -17 1 -5 -7z"/>
<path d="M1653 3892 c-11 -7 -16 -26 -14 -50 1 -9 8 -11 21 -7 13 4 22 1 26
-9 3 -9 12 -16 20 -16 10 0 14 13 14 45 0 42 -2 45 -27 45 -16 0 -33 -4 -40
-8z"/>
<path d="M1662 3661 c-9 -6 -9 -15 4 -40 11 -22 20 -29 26 -23 6 6 16 8 23 6
18 -7 28 12 21 39 -5 23 -49 34 -74 18z"/>
<path d="M1840 3160 c0 -5 5 -10 10 -10 6 0 10 5 10 10 0 6 -4 10 -10 10 -5 0
-10 -4 -10 -10z"/>
<path d="M1860 3113 c0 -23 5 -33 15 -33 19 0 19 21 0 46 -14 18 -14 17 -15
-13z"/>
<path d="M1780 2983 c-39 -12 -60 -28 -60 -45 0 -18 6 -21 50 -22 14 -1 25 -7
26 -13 3 -24 4 -25 18 -14 10 8 12 21 6 44 -3 18 -7 36 -8 42 -1 12 -12 15
-32 8z"/>
<path d="M1751 2844 c0 -11 3 -14 6 -6 3 7 2 16 -1 19 -3 4 -6 -2 -5 -13z"/>
<path d="M1763 2728 c2 -7 10 -13 17 -13 7 0 15 6 18 13 2 7 -5 12 -18 12 -13
0 -20 -5 -17 -12z"/>
<path d="M1806 2723 c-3 -10 -9 -24 -12 -30 -4 -9 3 -13 20 -13 30 0 40 13 31
40 -8 25 -31 26 -39 3z"/>
<path d="M1880 2254 c-6 -16 -13 -35 -15 -41 -2 -7 -2 -20 1 -28 5 -12 9 -12
30 1 19 13 22 21 17 47 -8 47 -21 54 -33 21z"/>
<path d="M3706 5735 c21 -16 38 -20 30 -6 -4 5 0 12 6 14 7 3 -2 6 -21 6 -33
1 -34 0 -15 -14z"/>
<path d="M3810 5732 c-27 -12 -31 -16 -17 -20 10 -2 25 2 33 9 10 9 21 9 37 2
66 -30 137 -42 137 -23 0 6 -15 10 -32 10 -43 0 -108 18 -108 30 0 13 -8 12
-50 -8z"/>
<path d="M3875 5740 c3 -5 13 -10 21 -10 8 0 14 5 14 10 0 6 -9 10 -21 10 -11
0 -17 -4 -14 -10z"/>
<path d="M3840 5688 c-19 -5 -39 -14 -45 -20 -7 -8 -5 -9 7 -5 10 4 41 9 69
13 33 4 46 10 37 15 -16 10 -23 10 -68 -3z"/>
<path d="M3718 5683 c7 -3 16 -2 19 1 4 3 -2 6 -13 5 -11 0 -14 -3 -6 -6z"/>
<path d="M4588 5743 c7 -3 16 -2 19 1 4 3 -2 6 -13 5 -11 0 -14 -3 -6 -6z"/>
<path d="M4642 5530 c0 -14 2 -19 5 -12 2 6 2 18 0 25 -3 6 -5 1 -5 -13z"/>
<path d="M4540 5440 c0 -5 5 -10 10 -10 6 0 10 5 10 10 0 6 -4 10 -10 10 -5 0
-10 -4 -10 -10z"/>
<path d="M3041 5384 c0 -11 3 -14 6 -6 3 7 2 16 -1 19 -3 4 -6 -2 -5 -13z"/>
<path d="M130 4136 c0 -2 6 -9 14 -15 10 -9 15 -8 20 4 4 10 -1 15 -14 15 -11
0 -20 -2 -20 -4z"/>
</g>
</svg>
