<?xml version="1.0" ?><svg height="64" id="svg8" version="1.1" viewBox="0 0 16.933333 16.933333" width="64" xmlns="http://www.w3.org/2000/svg" xmlns:cc="http://creativecommons.org/ns#" xmlns:dc="http://purl.org/dc/elements/1.1/" xmlns:inkscape="http://www.inkscape.org/namespaces/inkscape" xmlns:rdf="http://www.w3.org/1999/02/22-rdf-syntax-ns#" xmlns:sodipodi="http://sodipodi.sourceforge.net/DTD/sodipodi-0.dtd" xmlns:svg="http://www.w3.org/2000/svg"><defs id="defs2"/><g id="layer2"><path d="M 2.9104048,12.43539 H 14.021553 c 0.439736,0 0.793748,0.354012 0.793748,0.793749 v 2.116669 c 0,0.439736 -0.354012,0.793748 -0.793748,0.793748 H 2.9104048 c -0.4397365,0 -0.7937483,-0.354012 -0.7937483,-0.793748 v -2.116669 c 0,-0.439737 0.3540118,-0.793749 0.7937483,-0.793749 z" id="rect8874" style="display:inline;opacity:1;fill:#a8c5f7;fill-opacity:1;stroke:none;stroke-width:0.52916598;stroke-linecap:round;stroke-linejoin:round;stroke-miterlimit:4;stroke-dasharray:none"/><path d="m 14.249262,12.472109 c 0.0218,0.0726 0.0367,0.148028 0.0367,0.227893 v 2.116666 c 0,0.439737 -0.35401,0.79375 -0.79375,0.79375 H 2.381262 c -0.0799,0 -0.15529,-0.01494 -0.22789,-0.03669 0.098,0.327147 0.39718,0.565857 0.75706,0.565857 h 11.11095 c 0.43973,0 0.79375,-0.354014 0.79375,-0.79375 v -2.116667 c 0,-0.359967 -0.23858,-0.659148 -0.56586,-0.757059 z" id="path8876" style="display:inline;opacity:1;fill:#91b8fb;fill-opacity:1;stroke:none;stroke-width:0.52916598;stroke-linecap:round;stroke-linejoin:round;stroke-miterlimit:4;stroke-dasharray:none"/><path d="m 8.466672,0.79375159 c -2.25402,-5.2e-5 -4.1976,1.58425701 -4.65192,3.79201601 v 0.229444 c -0.16516,-0.033821 -0.334,-0.05271 -0.50487,-0.05271 -1.38965,0 -2.51613,1.1253517 -2.51613,2.5135416 0,0.9316299 0.50764,1.7450252 1.26142,2.1791951 4.26776,0.059088 8.53942,0.088589 12.7677,0.031006 0.78419,-0.42569 1.31671,-1.2559512 1.31671,-2.2102011 0,-1.3881899 -1.12647,-2.5135416 -2.51612,-2.5135416 -0.1621,0 -0.32249,0.01655 -0.47956,0.047025 l -0.0253,-0.223759 c -0.45432,-2.207759 -2.39789,-3.79206801 -4.65191,-3.79201601 z" id="path8847" style="opacity:1;fill:#e2e7fa;fill-opacity:1;stroke:none;stroke-width:0.529167;stroke-linecap:round;stroke-linejoin:round;stroke-miterlimit:4;stroke-dasharray:none"/><path d="m 8.466672,0.79375159 c -0.10551,1.03e-4 -0.21099,0.0037 -0.31626,0.01085 2.17032,0.09676 4.26526,1.80719501 4.44871,4.07482841 l 0.51946,-0.2936644 c -0.45432,-2.207759 -2.39789,-3.79206801 -4.65191,-3.79201601 z" id="path8897" style="opacity:1;fill:#c4d2f0;fill-opacity:1;stroke:none;stroke-width:0.529167;stroke-linecap:round;stroke-linejoin:round;stroke-miterlimit:4;stroke-dasharray:none"/><path d="m 6.348192,5.8208281 1.59112,1.85209 1.58388,-1.85209 H 8.464862 V 3.7041676 l -1.05652,-3e-6 v 2.1166669 z" id="path8890" style="opacity:1;fill:#a8c5f7;fill-opacity:1;stroke:none;stroke-width:0.529167;stroke-linecap:round;stroke-linejoin:round;stroke-miterlimit:4;stroke-dasharray:none"/><path d="m 2.910422,8.2020848 c -0.43974,0 -0.79375,0.3540136 -0.79375,0.79375 V 9.455755 c 4.24469,0.058485 8.493,0.087655 12.69845,0.030489 V 8.9958345 c 0,-0.4397364 -0.35402,-0.79375 -0.79375,-0.79375 z" id="rect8869" style="display:inline;opacity:1;fill:#c4d2f0;fill-opacity:1;stroke:none;stroke-width:0.52916598;stroke-linecap:round;stroke-linejoin:round;stroke-miterlimit:4;stroke-dasharray:none"/><path d="m 15.117422,5.2570451 c 0.30833,0.4171974 0.493,0.9314505 0.493,1.4898314 0,0.95425 -0.53253,1.7845111 -1.31672,2.2102011 -4.22828,0.057583 -8.49994,0.028082 -12.76769,-0.031006 -0.0821,-0.047308 -0.16022,-0.1006044 -0.23617,-0.1565796 0.20575,0.2772786 0.46467,0.5125709 0.76533,0.6857463 4.26776,0.059088 8.53942,0.088589 12.7677,0.031006 0.78419,-0.42569 1.31671,-1.2559512 1.31671,-2.2102011 0,-0.8285388 -0.40314,-1.5611025 -1.02216,-2.0189981 z" id="path8857" style="opacity:1;fill:#c4d2f0;fill-opacity:1;stroke:none;stroke-width:0.529167;stroke-linecap:round;stroke-linejoin:round;stroke-miterlimit:4;stroke-dasharray:none"/><path d="M 2.9104048,8.7312231 H 14.021553 c 0.439736,0 0.793748,0.3540117 0.793748,0.7937483 v 2.1166696 c 0,0.439736 -0.354012,0.793748 -0.793748,0.793748 H 2.9104048 c -0.4397365,0 -0.7937483,-0.354012 -0.7937483,-0.793748 V 9.5249714 c 0,-0.4397366 0.3540118,-0.7937483 0.7937483,-0.7937483 z" id="rect8860" style="display:inline;opacity:1;fill:#a8c5f7;fill-opacity:1;stroke:none;stroke-width:0.52916598;stroke-linecap:round;stroke-linejoin:round;stroke-miterlimit:4;stroke-dasharray:none"/><path d="m 14.249262,8.7679418 c 0.0218,0.072602 0.0367,0.1480285 0.0367,0.227893 v 2.1166672 c 0,0.439736 -0.35401,0.79375 -0.79375,0.79375 H 2.381262 c -0.0799,0 -0.15529,-0.01494 -0.22789,-0.03669 0.098,0.327146 0.39718,0.565857 0.75706,0.565857 h 11.11095 c 0.43973,0 0.79375,-0.354014 0.79375,-0.79375 V 9.5250018 c 0,-0.3599672 -0.23858,-0.6591483 -0.56586,-0.7570597 z" id="rect8864" style="display:inline;opacity:1;fill:#91b8fb;fill-opacity:1;stroke:none;stroke-width:0.52916598;stroke-linecap:round;stroke-linejoin:round;stroke-miterlimit:4;stroke-dasharray:none"/><path d="m 7.406522,3.7041716 1.59112,-1.85209 1.58388,1.85209 h -1.05833 v 2.11666 l -1.05652,3.2e-6 V 3.7041686 Z" id="path8880" style="opacity:1;fill:#a8c5f7;fill-opacity:1;stroke:none;stroke-width:0.529167;stroke-linecap:round;stroke-linejoin:round;stroke-miterlimit:4;stroke-dasharray:none"/><path d="m 8.997382,1.8520846 -0.26406,0.307475 1.32085,1.544609 h 0.5271 z m -0.002,1.852084 v 2.1166663 h 0.5271 V 3.7041686 Z" id="path8884" style="opacity:1;fill:#91b8fb;fill-opacity:1;stroke:none;stroke-width:0.529167;stroke-linecap:round;stroke-linejoin:round;stroke-miterlimit:4;stroke-dasharray:none"/><path d="m 8.466672,5.2916681 h 1.05833 v 0.5291666 h -1.05833 z" id="rect8887" style="opacity:1;fill:#91b8fb;fill-opacity:1;stroke:none;stroke-width:0.52916664;stroke-linecap:butt;stroke-linejoin:round;stroke-miterlimit:4;stroke-dasharray:none;stroke-dashoffset:0;stroke-opacity:1"/><path d="m 34.007812,7 -6.015624,7 h 2 L 35.005859,8.1660156 Z M 32,14 v 8 l 1.453125,0 v -8 z" id="path854" style="opacity:1;fill:#f8f8f8;fill-opacity:1;stroke:none;stroke-width:2.00000119;stroke-linecap:round;stroke-linejoin:round;stroke-miterlimit:4;stroke-dasharray:none" transform="scale(0.26458333)"/><path d="m 7.935952,3.7041686 v 2.1166663 h 0.52917 V 3.7041686 Z m 1.05782,2.1166663 -1.3193,1.5435749 0.2651,0.3085084 1.58336,-1.8520833 z" id="path8894" style="opacity:1;fill:#91b8fb;fill-opacity:1;stroke:none;stroke-width:0.529167;stroke-linecap:round;stroke-linejoin:round;stroke-miterlimit:4;stroke-dasharray:none"/><path d="m 4.762491,14.287498 c 3e-7,0.29225 -0.2369155,0.529166 -0.529166,0.529166 -0.2922505,0 -0.5291663,-0.236916 -0.529166,-0.529166 3e-7,-0.29225 0.2369159,-0.529165 0.529166,-0.529165 0.2922501,0 0.5291657,0.236915 0.529166,0.529165 z" id="ellipse8878" style="display:inline;opacity:1;fill:#e2e7fa;fill-opacity:1;stroke:none;stroke-width:0.529167;stroke-linecap:round;stroke-linejoin:round;stroke-miterlimit:4;stroke-dasharray:none"/><path d="m 4.762491,10.583303 c 3e-7,0.29225 -0.2369155,0.529166 -0.529166,0.529166 -0.2922505,0 -0.5291663,-0.236916 -0.529166,-0.529166 3e-7,-0.29225 0.2369159,-0.529165 0.529166,-0.529165 0.2922501,0 0.5291657,0.236915 0.529166,0.529165 z" id="ellipse8867" style="display:inline;opacity:1;fill:#e2e7fa;fill-opacity:1;stroke:none;stroke-width:0.529167;stroke-linecap:round;stroke-linejoin:round;stroke-miterlimit:4;stroke-dasharray:none"/><path d="M 11 33 C 9.3380037 33 8 34.338003 8 36 L 8 44 C 8 45.661994 9.3380037 47 11 47 L 13 47 C 11.338004 47 10 45.661994 10 44 L 10 36 C 10 34.338003 11.338004 33 13 33 L 11 33 z " id="path847" style="display:inline;opacity:1;fill:#f8f8f8;fill-opacity:1;stroke:none;stroke-width:1.9999975;stroke-linecap:round;stroke-linejoin:round;stroke-miterlimit:4;stroke-dasharray:none" transform="scale(0.26458333)"/><path d="m 2.9104166,12.435417 c -0.4397365,0 -0.79375,0.354013 -0.79375,0.793749 v 2.116667 c 0,0.439736 0.3540135,0.79375 0.79375,0.79375 h 0.5291667 c -0.4397364,0 -0.79375,-0.354014 -0.79375,-0.79375 v -2.116667 c 0,-0.439736 0.3540136,-0.793749 0.79375,-0.793749 z" id="path850" style="display:inline;opacity:1;fill:#f8f8f8;fill-opacity:1;stroke:none;stroke-width:0.52916598;stroke-linecap:round;stroke-linejoin:round;stroke-miterlimit:4;stroke-dasharray:none"/><path d="M 7.9380166,7.6729166 6.3463828,5.8208332 H 6.8755495 L 8.2020832,7.3644083 Z M 7.4067831,5.8208332 V 3.7041666 h 0.3844726 v 2.1166666 z" id="path857" style="opacity:1;fill:#f8f8f8;fill-opacity:1;stroke:none;stroke-width:0.529167;stroke-linecap:round;stroke-linejoin:round;stroke-miterlimit:4;stroke-dasharray:none"/><path d="M 32 3 C 23.480869 2.9998035 16.135084 8.9877451 14.417969 17.332031 L 14.417969 18.003906 C 14.448868 18.003611 14.478797 18 14.509766 18 C 15.155574 18 15.793742 18.071391 16.417969 18.199219 L 16.417969 17.332031 C 18.067248 9.3173925 24.913146 3.4917761 33 3.0429688 C 32.667382 3.024509 32.336555 2.9999922 32 3 z M 12.509766 18 C 7.257545 18 3 22.253298 3 27.5 C 3 31.021121 4.9186458 34.095371 7.7675781 35.736328 C 16.485783 35.857033 25.205695 35.93988 33.904297 35.960938 C 25.869743 35.932194 17.816997 35.847774 9.7675781 35.736328 C 6.9186458 34.095371 5 31.021121 5 27.5 C 5 22.594789 8.72165 18.559407 13.498047 18.054688 C 13.171363 18.019074 12.841338 18 12.509766 18 z M 51.658203 18.007812 L 51.677734 18.177734 C 51.95136 18.124645 52.227498 18.084443 52.505859 18.054688 C 52.227209 18.025128 51.943512 18.012799 51.658203 18.007812 z " id="path861" style="opacity:1;fill:#f8f8f8;fill-opacity:1;stroke:none;stroke-width:2.00000119;stroke-linecap:round;stroke-linejoin:round;stroke-miterlimit:4;stroke-dasharray:none" transform="scale(0.26458333)"/><path d="m 3.5625818,4.5098119 c -0.0835,-0.008 -0.16774,-0.0119 -0.2521799,-0.0119 -1.5324901,-1e-7 -2.78123013,1.2462799 -2.78123013,2.7776099 0,0.9966399 0.53064003,1.8702999 1.32240003,2.36006 v 2.0071092 c 0,0.31673 0.14424,0.59821 0.3669,0.7922 -0.22266,0.19452 -0.3669,0.47703 -0.3669,0.79375 v 2.11719 c 0,0.58173 0.4766,1.05833 1.05833,1.05833 H 14.021371 c 0.58174,0 1.05885,-0.4766 1.05885,-1.05833 v -2.11719 c 0,-0.31672 -0.14423,-0.59923 -0.3669,-0.79375 0.0182,-0.0158 0.0388,-0.029 0.0558,-0.046 0.19193,-0.19144 0.31109,-0.45534 0.31109,-0.74621 V 9.6360917 c 0.79275,-0.4897498 1.32395,-1.3632198 1.32395,-2.3605799 0,-1.53133 -1.24873,-2.7776098 -2.78122,-2.7776098 -0.0845,0 -0.16819,0.004 -0.25167,0.011901 C 12.882961,2.1930019 10.836541,0.52917197 8.4666668,0.52917697 6.0967617,0.52918198 4.0508619,2.1929719 3.5625818,4.5098119 Z m 9.2888392,0.09819 c -0.39775,0.1147799 -0.76858,0.3167398 -1.08211,0.5968598 -0.1087,0.0973 -0.11818,0.2641599 -0.0212,0.3731101 0.0973,0.11021 0.26581,0.1199599 0.37518,0.021701 0.41284,-0.36884 0.94569,-0.5720601 1.49965,-0.5720601 1.2468,0 2.25205,1.0028801 2.25205,2.2479301 0,0.73724 -0.35435,1.3881698 -0.90072,1.7983398 -0.17077,-0.35688 -0.5331,-0.6071999 -0.95291,-0.6071999 H 2.9098918 c -0.41978,0 -0.7816,0.25035 -0.95239,0.6071999 -0.54557,-0.4103509 -0.89866,-1.0618709 -0.89865,-1.7983408 -1e-5,-1.24505 1.00473,-2.2479301 2.25154,-2.2479301 0.55396,0 1.08732,0.2032201 1.50016,0.5720601 0.10937,0.0983 0.2778699,0.0885 0.3751699,-0.021701 0.0969,-0.1090901 0.0872,-0.27599 -0.021701,-0.3731101 -0.31366,-0.2802301 -0.6841801,-0.4821 -1.0820999,-0.5968599 0.441031,-2.070049 2.2653209,-3.549139 4.3847459,-3.549139 2.1194043,0 3.9436943,1.47913 4.3847543,3.5491401 z M 8.7968817,1.6795319 7.2052518,3.5310917 c -0.0496,0.0581 -0.0716,0.1347801 -0.0605,0.2103303 v 1.8153898 h -0.7953 c -0.2265,-3.704e-4 -0.3487402,0.26548 -0.2010201,0.43718 l 1.5916301,1.8515701 c 0.1056399,0.12378 0.2969199,0.12378 0.4025598,0 l 1.5838802,-1.85312 c 0.0473,-0.0561 0.0692,-0.1292302 0.0605,-0.2020501 V 3.9687919 h 0.7947892 c 0.22727,0.00101 0.35021,-0.26579 0.20154,-0.4377002 L 9.1994418,1.6795319 c -0.0478,-0.0554 -0.1165,-0.0885 -0.2007601,-0.0915 -0.08461,0.003 -0.1537099,0.0358 -0.2018,0.0915 z m 0.20099,0.58029 1.0097493,1.1797801 H 9.5234117 C 9.376492,3.4390464 9.2572419,3.5582819 9.257802,3.7052119 v 1.85157 H 8.7301821 v -1.85157 C 8.7307377,3.5590918 8.6127521,3.440182 8.466632,3.439602 H 7.9834621 Z M 7.673912,3.9687618 h 0.5271 v 1.85157 c -5.556e-4,0.14693 0.11869,0.2661801 0.26562,0.26562 h 0.48266 L 7.9416021,7.2657219 6.9277121,6.0859518 h 0.48059 c 0.14693,5.556e-4 0.2661798,-0.11869 0.2656099,-0.26562 z M 6.0859016,8.9963617 V 12.169811 H 2.9098618 c -0.29773,0 -0.52916,-0.22936 -0.52916,-0.5271 V 9.5255318 c 0,-0.0372 0.004,-0.0737 0.0108,-0.1085199 0.0484,-0.2437802 0.2578,-0.4206502 0.518335,-0.4206502 z m 0.5291601,0 h 7.4062693 c 0.29774,0 0.52917,0.2314401 0.52917,0.5291701 v 2.1171792 c 0,0.29774 -0.23143,0.5271 -0.52917,0.5271 H 6.6150617 Z m -2.3827999,0.79272 c -0.4352401,0 -0.7927099,0.3595393 -0.7927099,0.7947793 0,0.43524 0.3574698,0.79324 0.7927099,0.79324 0.4352499,0 0.7952999,-0.358 0.7952999,-0.79324 1.01e-5,-0.43524 -0.36005,-0.7947793 -0.7952999,-0.7947793 z m 0,0.5291693 c 0.1492599,0 0.26562,0.11635 0.26562,0.26561 0,0.14926 -0.1163601,0.26355 -0.26562,0.26355 -0.1492501,0 -0.2635501,-0.11429 -0.2635501,-0.26355 0,-0.14926 0.1143,-0.26561 0.2635501,-0.26561 z m 3.17604,0 c -0.1461301,5.82e-4 -0.26412,0.11949 -0.2635501,0.26561 5.556e-4,0.14532 0.1182301,0.26299 0.2635501,0.26355 h 5.8203092 c 0.14613,5.82e-4 0.26505,-0.11742 0.26562,-0.26355 5.82e-4,-0.14693 -0.11868,-0.26619 -0.26562,-0.26561 z m -4.49844,2.38073 h 3.1760398 v 3.17603 H 2.9098618 c -0.29773,0 -0.52916,-0.23143 -0.52916,-0.52916 v -2.11719 c 0,-0.29773 0.23143,-0.52968 0.52916,-0.52968 z m 3.7051999,0 h 7.4062693 c 0.29774,0 0.52917,0.23195 0.52917,0.52968 v 2.11719 c 0,0.29773 -0.23143,0.52916 -0.52917,0.52916 H 6.6150617 Z m -2.3827999,0.7953 c -0.4352401,0 -0.7927099,0.35747 -0.7927099,0.79272 0,0.43524 0.3574698,0.7953 0.7927099,0.7953 0.4352499,0 0.79531,-0.36006 0.7952999,-0.7953 0,-0.43525 -0.36005,-0.79272 -0.7952999,-0.79272 z m 0,0.52917 c 0.1492599,-10e-6 0.26562,0.11429 0.26562,0.26355 0,0.14925 -0.1163601,0.26561 -0.26562,0.26561 -0.1492501,0 -0.2635501,-0.11636 -0.2635501,-0.26561 0,-0.14926 0.1143,-0.26356 0.2635501,-0.26355 z m 3.17604,0 c -0.14532,5.56e-4 -0.26299,0.11823 -0.2635501,0.26355 -5.821e-4,0.14612 0.11742,0.26504 0.2635501,0.26561 h 5.8203092 c 0.14694,5.82e-4 0.2662,-0.11868 0.26562,-0.26561 -5.82e-4,-0.14613 -0.11949,-0.26413 -0.26562,-0.26355 z" id="rect2748" style="color:#000000;font-style:normal;font-variant:normal;font-weight:normal;font-stretch:normal;font-size:medium;line-height:normal;font-family:sans-serif;font-variant-ligatures:normal;font-variant-position:normal;font-variant-caps:normal;font-variant-numeric:normal;font-variant-alternates:normal;font-feature-settings:normal;text-indent:0;text-align:start;text-decoration:none;text-decoration-line:none;text-decoration-style:solid;text-decoration-color:#000000;letter-spacing:normal;word-spacing:normal;text-transform:none;writing-mode:lr-tb;direction:ltr;text-orientation:mixed;dominant-baseline:auto;baseline-shift:baseline;text-anchor:start;white-space:normal;shape-padding:0;clip-rule:nonzero;display:inline;overflow:visible;visibility:visible;opacity:1;isolation:auto;mix-blend-mode:normal;color-interpolation:sRGB;color-interpolation-filters:linearRGB;solid-color:#000000;solid-opacity:1;vector-effect:none;fill:#66a0fe;fill-opacity:1;fill-rule:nonzero;stroke:none;stroke-width:1;stroke-linecap:round;stroke-linejoin:round;stroke-miterlimit:4;stroke-dasharray:none;stroke-dashoffset:0;stroke-opacity:1;color-rendering:auto;image-rendering:auto;shape-rendering:auto;text-rendering:auto;enable-background:accumulate"/></g></svg>